<svg xmlns="http://www.w3.org/2000/svg" viewBox="0 0 2048 2048"><defs><style>.cls-1{fill:none;}.cls-2{fill:#0db455;}</style></defs><title>green-fern-cresspresso</title><g id="Layer_2" data-name="Layer 2"><g id="_Artboard_Edge_" data-name="[Artboard Edge]"><rect class="cls-1" width="2048" height="2048"/></g><g id="green_fern_cresspresso"><path class="cls-2" d="M1005.61,1370.46a491.28,491.28,0,0,0-186.5,90.13C968,1241.7,1236.61,1118.9,1513.9,1169.15c-277.36-73.82-560.13,28.79-729.25,238.79A1188.12,1188.12,0,0,1,1375.39,777a1142.66,1142.66,0,0,0-614.14,539,2341.37,2341.37,0,0,1,421-890.62C993.39,629,829.47,896.68,730.21,1206.59A6799.73,6799.73,0,0,1,931.2,90.2,5276.27,5276.27,0,0,0,629.44,1849h70.35a457.85,457.85,0,0,1,341.54-442.82c244.56-64.22,494.88,82,559.11,326.53C1536.21,1468.42,1269.89,1306.24,1005.61,1370.46Z"/></g></g></svg>