<?xml version="1.0" encoding="utf-8"?>
<!-- Generator: Adobe Illustrator 21.0.0, SVG Export Plug-In . SVG Version: 6.00 Build 0)  -->
<svg version="1.1" id="Layer_1" xmlns="http://www.w3.org/2000/svg" xmlns:xlink="http://www.w3.org/1999/xlink" x="0px" y="0px"
	 viewBox="0 0 256 256" style="enable-background:new 0 0 256 256;" xml:space="preserve">
<style type="text/css">
	.st0{fill:url(#SVGID_1_);}
	.st1{display:none;fill:#3D568E;}
</style>
<linearGradient id="SVGID_1_" gradientUnits="userSpaceOnUse" x1="128" y1="62.7125" x2="128" y2="-193.2876" gradientTransform="matrix(1 0 0 -1 0 64)">
	<stop  offset="0" style="stop-color:#4D69A2"/>
	<stop  offset="1" style="stop-color:#3C5A99"/>
</linearGradient>
<path class="st0" d="M256,244.1V11.8C256,5.3,250.7,0,244.3,0c0,0,0,0,0,0H11.6C5.2,0,0,5.3,0,11.8v232.3c0,6.5,5.2,11.9,11.6,11.9
	h129.2V153.2h-33.3v-35.4h33.3V79.3c0.5-20.8,16.7-37.6,37.1-38.5h37.1V73h-17c-8.5,0-19.8,7-19.8,15.6v29.1h33.6v35.4h-33.6V256
	h65.9C250.7,256,256,250.7,256,244.1C256,244.1,256,244.1,256,244.1z"/>
<path class="st1" d="M243,256h-66.7V151.5h33.3v-32.1h-33.3V89.1c0-9.1,11.6-16.9,21-16.9H213V43.4h-35.5
	c-14.8,0-35.3,13.9-35.3,36.6v39.5h-33.1v32.1h33V256H12.8C5.7,255.9,0,250,0,242.8V13.1C0,5.9,5.8,0,13,0H243c7.2,0,13,5.9,13,13.2
	v229.6C256,250.1,250.2,256,243,256z M179.2,253.1H243c5.6,0,10.1-4.6,10.1-10.3V13.2c0-5.7-4.5-10.3-10.1-10.3H13
	c-5.5,0-10,4.6-10.1,10.2v229.7c0,5.7,4.5,10.2,10.1,10.2h126.3v-98.5h-32.9v-38.1h33V79.9c0.6-21.3,17.2-38.5,38.2-39.5h38.3v34.8
	h-18.5c-8.1,0-18.1,6.6-18.1,14v27.3h33.3v37.9h-33.3L179.2,253.1z"/>
</svg>
